<svg width="800" height="600" xmlns="http://www.w3.org/2000/svg">

 <g>
  <title>Layer 1</title>
  <path id="svg_1" d="m184,164l345,0l0,176l-345,0l0,-176z" opacity="undefined" stroke="#000" fill="#fff"/>
  <path id="svg_2" d="m330,212c78,-126 3,181 3,181c0,0 236,1 236,1c0,0 1,-163 0,-163c-1,0 -317,107 -239,-19z" opacity="NaN" stroke="#000" fill="#fff"/>
  <path id="svg_3" d="m256.00001,216.08846c9.68894,-24.80731 47.65051,0 0,31.89511c-47.65051,-31.89511 -9.68894,-56.70242 0,-31.89511z" stroke="#000" fill="#fff"/>
  <path d="m430,301c0,0 0,1 0,1c0,1 0,3 0,4c0,1 0,2 0,3c0,1 0,2 0,3c0,1 0.29291,2.29291 1,3c0.70709,0.70709 1.29291,0.29291 2,1c0.70709,0.70709 1.29291,0.29291 2,1c0.70709,0.70709 1,1 2,1c1,0 2,0 3,0c1,0 2,0 3,0c1,0 2.02676,-0.22977 3,0c2.17624,0.51373 4,1 5,1c2,0 4,0 6,0c2,0 4,-1 6,-2c2,-1 4.186,-1.69254 6,-3c1.14728,-0.8269 3.07611,-2.61731 4,-3c2.61313,-1.0824 3.41885,-3.41885 5,-5c1.58115,-1.58115 2.34619,-3.70547 4,-6c1.30746,-1.814 2.9176,-3.38687 4,-6c0.38269,-0.92389 1.4588,-2.69345 2,-4c0.38269,-0.92389 1.61731,-3.07611 2,-4c0.5412,-1.30655 1.29291,-2.29291 2,-3c0.70709,-0.70709 1.02676,-0.77023 2,-1c2.17624,-0.51373 2.2565,2.797 3,4c1.66251,2.69 2.28857,3.86829 4,8c1.21014,2.92157 1.78986,6.07843 3,9c0.85571,2.06586 2.48627,4.82376 3,7c0.68927,2.91974 1,5 1,7c0,3 1,5 1,7c0,1 1,3 1,5c0,1 0.4595,3.0535 0,5c-0.51373,2.17624 -1.1731,3.85272 -2,5c-1.30746,1.814 -1,3 -2,4c-1,1 -2.31,1.33749 -5,3c-1.203,0.7435 -2.93414,2.14429 -5,3c-2.92157,1.21014 -5.03873,1.51944 -8,2c-3.12143,0.50653 -5.03873,1.51944 -8,2c-3.12143,0.50653 -5,1 -8,1c-2,0 -4.69345,0.4588 -6,1c-2.77164,1.14804 -3.82376,0.48627 -6,1c-1.9465,0.4595 -3,1 -4,1c-2,0 -2.29291,0.29291 -3,1c-1.41422,1.41422 -3.29291,-0.70709 -4,0c-0.70709,0.70709 -1.29291,0.29291 -2,1c-0.70709,0.70709 -0.61731,1.07611 -1,2c-0.5412,1.30655 -2.4588,0.69345 -3,2c-0.38269,0.92389 -1,2 -1,3c0,1 0,2 0,4c0,1 0,2 0,3c0,1 -0.38269,2.07611 0,3c0.5412,1.30655 2.29291,1.29291 3,2c0.70709,0.70709 1,1 2,1c1,0 1.29291,0.29291 2,1c0.70709,0.70709 3,0 4,0c2,0 5,0 6,0c2,0 4.29871,0.05145 6,-1c1.9021,-1.17557 4,-2 6,-3c2,-1 3.31,-0.33749 6,-2c1.203,-0.7435 2.69345,-1.4588 4,-2c0.92389,-0.38269 3,0 4,0c1,0 1.29291,-0.29291 2,-1c0.70709,-0.70709 2.29291,0.70709 3,0c0.70709,-0.70709 -1,-2 -2,-3c-1,-1 -2.41885,-2.41885 -4,-4c-1.58115,-1.58115 -3,-2 -4,-3c-2,-2 -3.38687,-3.9176 -6,-5c-1.84775,-0.76538 -2.69345,-1.4588 -4,-2c-1.84775,-0.76538 -3.69345,-2.4588 -5,-3c-1.84775,-0.76538 -3.14935,-0.47427 -4,-1c-1.9021,-1.17557 -2.186,-1.69254 -4,-3c-1.14728,-0.8269 -2.41885,-1.41885 -4,-3c-1.58115,-1.58115 -4.02676,-1.77023 -5,-2c-2.17624,-0.51373 -3.186,-1.69254 -5,-3c-1.14728,-0.8269 -2.69345,-1.4588 -4,-2c-0.92389,-0.38269 -2,-1 -3,-1c-1,0 -2,-1 -3,-1c-1,0 -2.07611,0.38269 -3,0c-1.30655,-0.5412 -2,-1 -3,-1c-1,0 -2.07611,0.38269 -3,0c-1.30655,-0.5412 -2,-1 -3,-1c-1,0 -3,0 -4,0c-1,0 -2,0 -3,0c-1,0 -3,0 -5,0c-1,0 -4,0 -5,0c-3,0 -5,0 -7,0c-1,0 -4,0 -5,0c-2,0 -4,-1 -5,-1c-2,0 -3,0 -4,0c-1,0 -2,0 -3,0c-1,0 -1.29291,0.29291 -2,1c-0.70709,0.70709 -1,1 -1,2c0,1 0,2 0,4c0,2 0.61731,3.07611 1,4c0.5412,1.30655 2,2 3,3c1,1 1.29291,2.29291 2,3c0.70709,0.70709 1,1 2,1c1,0 1.07611,1.38269 2,1c1.30655,-0.5412 1.4588,-1.69345 2,-3c0.38269,-0.92389 1.48627,-1.82376 2,-4c0.22977,-0.97324 0.23462,-2.15225 1,-4c0.5412,-1.30655 1,-3 2,-4c1,-1 1,-2 1,-3c0,-1 1,-2 1,-3c0,-1 1,-1 1,-2c0,-1 0.4588,-1.69345 1,-3c0.38269,-0.92389 -0.70709,-2.29291 0,-3c0.70709,-0.70709 1,-1 1,-2c0,-1 0,-2 0,-3c0,-2 1,-2 1,-3c0,-1 0,-2 0,-3c0,-1 0.4588,-1.69345 1,-3c0.38269,-0.92389 0,-2 0,-3c0,-1 1,-2 1,-3c0,-1 1,-2 1,-3c0,-1 -0.70709,-2.29291 0,-3c0.70709,-0.70709 1,-1 1,-2c0,-1 1,-1 1,-2c0,-1 1.29291,-1.29291 2,-2c0.70709,-0.70709 1.29291,-1.29291 2,-2c0.70709,-0.70709 1.29291,-1.29291 2,-2c0.70709,-0.70709 0.29291,-1.29291 1,-2c0.70709,-0.70709 1,-2 2,-2c1,0 1,-1 2,-1c1,0 1,-1 2,-1c1,0 2,-1 3,-1c1,0 2.29291,0.70709 3,0c0.70709,-0.70709 1,-1 2,-1c1,0 2,0 4,0c1,0 2,0 3,0c1,0 3,0 4,0c1,0 2,0 3,0c1,0 2,0 3,0c1,0 2,0 3,0c1,0 2,0 3,0c1,0 2,0 3,0c1,0 1,-1 2,-1c1,0 2,0 3,0c1,0 2,0 3,0c1,0 2,0 3,0c1,0 2,0 3,0c1,0 2,0 3,0c1,0 2,0 3,0c1,0 2,0 3,0c2,0 2,-1 3,-1c1,0 2.4588,0.30655 3,-1c0.38269,-0.92389 2.02676,-0.77023 3,-1c2.17624,-0.51373 3.82376,-1.48627 6,-2c3.89301,-0.91901 7.02249,0.36655 10,0c4.09222,-0.50378 7,-1 10,-1c3,0 4,0 5,0c1,0 2,0 3,0c1,0 2.29291,0.29291 3,1c0.70709,0.70709 1,1 1,2c0,1 0.61731,1.07611 1,2c0.5412,1.30655 2,2 2,3c0,1 1,1 1,2c0,1 0.29291,2.29291 1,3c0.70709,0.70709 2,1 2,2c0,1 0.29291,1.29291 1,2c0.70709,0.70709 1,1 1,2c0,1 1,2 1,3c0,1 1,2 1,3c0,1 0.38269,2.07611 0,3c-0.5412,1.30655 -1.69342,1.4588 -3,2c-1.84778,0.76538 -2.69342,1.4588 -4,2c-1.84778,0.76538 -3,1 -4,1c-1,0 -2,1 -3,1c-1,0 -3,1 -4,1c-1,0 -2.69342,1.4588 -4,2c-0.92389,0.38269 -3.07611,0.61731 -4,1c-1.30655,0.5412 -2,2 -3,3c-1,1 -2,1 -3,2c-1,1 -2,2 -3,3c-1,1 -1.69254,1.186 -3,3c-0.8269,1.14728 -2,1 -3,2c-1,1 -1.29291,2.29291 -2,3c-0.70709,0.70709 -2.29291,0.29291 -3,1c-0.70709,0.70709 -0.29291,1.29291 -1,2c-0.70709,0.70709 -0.29291,1.29291 -1,2c-0.70709,0.70709 -0.29291,1.29291 -1,2c-0.70709,0.70709 -1,1 -1,2c0,1 0,2 0,3c0,1 0.4588,1.69345 1,3c0.76538,1.84775 1,3 2,4c1,1 2,2 3,3c1,1 0.82376,2.48627 3,3c0.97324,0.22977 1.07611,0.61731 2,1c1.30655,0.5412 1.29291,1.29291 2,2c0.70709,0.70709 2,0 4,0c1,0 2.69345,0.4588 4,1c1.84775,0.76538 3,0 5,0c1,0 2,0 4,0c1,0 1.82373,0.48627 4,1c0.97327,0.22977 2.29291,-0.70709 3,0c0.70709,0.70709 1,1 1,2l1,0l0,1" id="svg_5" stroke="#000" fill="none"/>
 </g>
</svg>