<svg version="1.1" xmlns="http://www.w3.org/2000/svg" xmlns:xlink="http://www.w3.org/1999/xlink" width="64px" height="64px" viewBox="0,0,256,256"><g fill="#768a9f" fill-rule="nonzero" stroke="none" stroke-width="1" stroke-linecap="butt" stroke-linejoin="miter" stroke-miterlimit="10" stroke-dasharray="" stroke-dashoffset="0" font-family="none" font-weight="none" font-size="none" text-anchor="none" style="mix-blend-mode: normal"><g transform="scale(10.66667,10.66667)"><path d="M6,2c-1.09425,0 -2,0.90575 -2,2v5c-1.105,0 -2,0.895 -2,2v5c0,1.105 0.895,2 2,2v2c0,1.09426 0.90575,2 2,2h12c1.09426,0 2,-0.90574 2,-2v-13l-5,-5zM6,4h8v4h4v1h-12zM4,11h1v2h2v-2h1v5h-1v-2h-2v2h-1zM9,11h3v1h-2v1h1.59961v1h-1.59961v1h2v1h-3zM13.02539,11h1.24805l0.72461,1.7168l0.72656,-1.7168h1.24609l-1.26758,2.47852l1.29688,2.52148h-1.26172l-0.74023,-1.74805l-0.73633,1.74805h-1.26172l1.29492,-2.52148zM6,18h12v2h-12z"></path></g></g></svg>
